<?xml version="1.0" encoding="UTF-8"?>
<svg version="1.1" xmlns="http://www.w3.org/2000/svg" width="1135" height="571">
<path d="M0 0 C1.14662109 0.00193359 1.14662109 0.00193359 2.31640625 0.00390625 C4.93857711 0.53993013 5.81402324 1.34030357 7.4375 3.4375 C8.45644649 6.49433946 8.5762403 8.64587949 8.61328125 11.84765625 C8.63712891 12.92080078 8.66097656 13.99394531 8.68554688 15.09960938 C8.72799384 17.33900847 8.75952306 19.57864532 8.77929688 21.81835938 C9.00985061 30.82067851 10.34609039 38.70740882 16.9375 45.25 C21.92884343 49.17896575 27.53671018 51.22636883 33.4375 53.4375 C48.3367654 59.12401584 61.28058424 66.40657721 74.4375 75.4375 C75.4790625 74.73625 76.520625 74.035 77.59375 73.3125 C90.90270281 64.45762051 104.2755113 57.30920335 119.32397461 51.87011719 C127.8350596 48.73867115 134.06412028 44.45435351 138.05078125 36.02734375 C140.44102052 29.40997126 139.90862065 22.31659936 139.96484375 15.37304688 C139.99771484 13.75946289 139.99771484 13.75946289 140.03125 12.11328125 C140.03833984 11.14302002 140.04542969 10.17275879 140.05273438 9.1730957 C140.54605722 5.66568296 141.91546037 2.95953963 144.4375 0.4375 C146.36328125 0.19921875 146.36328125 0.19921875 148.75 0.125 C149.52988281 0.08761719 150.30976562 0.05023438 151.11328125 0.01171875 C154.48428579 0.62926412 155.40255132 1.66699838 157.4375 4.4375 C158.04731698 7.61665622 157.99403189 10.76287525 157.97094727 13.99194336 C157.97956284 14.95985306 157.98817841 15.92776276 157.99705505 16.92500305 C158.01976654 20.12605495 158.0129662 23.32623504 158.00390625 26.52734375 C158.00913973 28.75167604 158.01541519 30.97600609 158.02268982 33.20033264 C158.03310379 37.86339761 158.02851837 42.5261576 158.01391602 47.18920898 C157.99673185 53.16614529 158.0202145 59.14211997 158.05540562 65.11894894 C158.0773627 69.71291988 158.07594208 74.30666018 158.0676403 78.90066719 C158.06681977 81.10429501 158.07370259 83.30793959 158.08841133 85.51151848 C158.10582425 88.59283468 158.09134057 91.67241585 158.06860352 94.75366211 C158.08614182 96.11988205 158.08614182 96.11988205 158.10403442 97.51370239 C158.03697514 101.97854844 157.88031134 103.8594812 155.08555603 107.50758362 C152.4375 109.4375 152.4375 109.4375 149.4375 110 C145.47026239 109.25614295 144.05483372 108.56375972 141.4375 105.4375 C140.39167764 101.82194271 139.92546177 98.16375348 139.4375 94.4375 C138.29817231 86.09325024 138.29817231 86.09325024 133.4375 79.4375 C129.44387632 77.17084872 125.96218965 76.75879655 121.4375 77.4375 C118.03808156 79.33050948 115.29747382 81.81585733 112.4375 84.4375 C111.880625 84.94667969 111.32375 85.45585938 110.75 85.98046875 C108.91711329 87.67509892 107.11113114 89.3940906 105.3125 91.125 C104.71937012 91.68340576 104.12624023 92.24181152 103.51513672 92.81713867 C101.65497117 94.60097776 101.65497117 94.60097776 99.4375 97.4375 C99.74039512 100.57310439 100.99086512 102.44890697 102.95703125 104.84375 C103.47861816 105.49424316 104.00020508 106.14473633 104.53759766 106.81494141 C105.10269043 107.51538574 105.6677832 108.21583008 106.25 108.9375 C132.86019141 142.95942751 147.22680346 184.26346252 154.4375 226.4375 C154.60411133 227.38463867 154.77072266 228.33177734 154.94238281 229.30761719 C160.22310934 260.76237955 159.87946979 296.03738318 154.4375 327.4375 C154.13948486 329.16758301 154.13948486 329.16758301 153.83544922 330.93261719 C146.40366967 372.58398393 131.5580222 413.75672575 104.76123047 446.98876953 C102.34470479 450.03090794 100.79447738 452.81622393 99.4375 456.4375 C102.32090252 459.40816987 105.22124606 462.36173077 108.125 465.3125 C108.94162109 466.15425781 109.75824219 466.99601562 110.59960938 467.86328125 C111.39560547 468.66894531 112.19160156 469.47460938 113.01171875 470.3046875 C113.73963623 471.04831543 114.46755371 471.79194336 115.2175293 472.55810547 C118.14441529 475.03596408 120.84638286 476.32958075 124.68359375 476.58984375 C130.50044203 476.01956451 133.46512282 474.79742618 137.4375 470.4375 C139.72468417 464.91671063 139.79743139 459.67953848 139.99609375 453.77734375 C140.46966257 450.19414608 141.27614287 448.30398074 143.4375 445.4375 C146.95574511 443.09200326 148.29525694 442.85758597 152.4375 443.4375 C155.20641906 445.44142076 157.12476249 447.0479918 157.89792061 450.48317146 C158.08251982 453.04149674 158.10152903 455.55646552 158.06860352 458.12133789 C158.07933647 459.57583092 158.07933647 459.57583092 158.09028625 461.05970764 C158.10717563 464.26033844 158.08776995 467.45956922 158.06640625 470.66015625 C158.06723485 472.88545345 158.06969391 475.11075059 158.07371521 477.33604431 C158.0765733 481.99741053 158.06186911 486.65829627 158.03442383 491.31958008 C158.00032175 497.29762318 158.00636602 503.27480817 158.0250864 509.25289249 C158.03564856 513.84682888 158.02672594 518.44056518 158.01170158 523.03448296 C158.00651492 525.23892053 158.00700742 527.44337895 158.01324654 529.6478138 C158.01868989 532.72668626 157.99835171 535.80432474 157.97094727 538.88305664 C157.98073608 540.25231293 157.98073608 540.25231293 157.99072266 541.64923096 C157.89741952 547.80631476 157.89741952 547.80631476 155.5877533 550.97605896 C152.76854691 552.89216062 150.84588003 553.36794122 147.4375 553.4375 C144.61169503 552.21726604 142.9637185 551.27245165 141.31396484 548.65478516 C140.27311642 546.0216416 140.18237572 543.97708758 140.1640625 541.1484375 C140.133125 539.61123047 140.133125 539.61123047 140.1015625 538.04296875 C140.07580518 535.91283814 140.05740781 533.78260404 140.046875 531.65234375 C139.88524173 524.45966315 138.59814013 518.89863159 135.4375 512.4375 C135.10145752 511.70805176 134.76541504 510.97860352 134.41918945 510.22705078 C133.11961947 507.85802617 131.92170369 507.43997512 129.4375 506.4375 C128.20580078 505.90382813 128.20580078 505.90382813 126.94921875 505.359375 C126.01722656 504.97265625 125.08523438 504.5859375 124.125 504.1875 C122.53171875 503.52427734 122.53171875 503.52427734 120.90625 502.84765625 C118.56150942 501.89444527 116.20685973 500.96530868 113.84375 500.05859375 C101.13524044 495.15940992 89.38176487 489.5239737 78.8046875 480.80859375 C76.54865194 479.23705583 76.54865194 479.23705583 74.046875 479.44140625 C70.5868461 480.76222567 67.79075112 482.78647422 64.8125 484.9375 C53.07381104 493.0655261 40.04664413 498.79540667 26.59985352 503.49902344 C20.39850179 505.68531841 16.50439553 507.57043282 13.1875 513.375 C12.68734375 514.22964844 12.1871875 515.08429687 11.671875 515.96484375 C9.62582641 520.06341577 9.31306976 523.56045879 9.26171875 528.12109375 C9.23787109 529.21357422 9.21402344 530.30605469 9.18945312 531.43164062 C9.14656102 533.72311896 9.11526883 536.01484442 9.09570312 538.30664062 C8.88429517 546.64988032 8.88429517 546.64988032 6.609375 550.66015625 C3.54780463 553.16557805 1.36085773 553.4375 -2.5625 553.4375 C-5.51005732 552.09187601 -7.10527272 551.35195456 -8.5625 548.4375 C-8.66420099 547.10597585 -8.7061943 545.76961331 -8.71640015 544.43424988 C-8.72500061 543.59731094 -8.73360107 542.76037201 -8.74246216 541.89807129 C-8.74672211 540.97804321 -8.75098206 540.05801514 -8.75537109 539.11010742 C-8.76354858 538.14248978 -8.77172607 537.17487213 -8.78015137 536.17793274 C-8.80502472 532.96628443 -8.8215257 529.75468035 -8.8359375 526.54296875 C-8.84126118 525.44778742 -8.84658485 524.35260609 -8.85206985 523.22423744 C-8.87880891 517.42838871 -8.89818207 511.63256159 -8.91259766 505.83666992 C-8.92925416 499.84408615 -8.97403866 493.85205141 -9.0249691 487.85967541 C-9.0585902 483.25718031 -9.07016945 478.65481638 -9.07582474 474.05220985 C-9.08255059 471.84296786 -9.09780704 469.6337349 -9.12171555 467.42461205 C-9.15326115 464.333642 -9.15341956 461.24416429 -9.14599609 458.15307617 C-9.16240143 457.23912079 -9.17880676 456.32516541 -9.19570923 455.3835144 C-9.15165697 450.90653064 -9.01254112 449.0260803 -6.21353149 445.36543274 C-3.5625 443.4375 -3.5625 443.4375 -0.5625 442.875 C3.11983904 443.56543857 4.80563928 444.80563928 7.4375 447.4375 C8.55916658 450.80249973 8.61598023 453.5830489 8.75 457.125 C9.21849945 464.21105423 10.37562005 468.92200821 15.125 474.375 C18.74535032 476.0384042 22.45902304 476.73363259 26.4375 476.4375 C32.02287805 474.32159077 35.9177968 470.59732758 40.1875 466.5625 C41.19490234 465.64404297 41.19490234 465.64404297 42.22265625 464.70703125 C47.21481903 460.34751874 47.21481903 460.34751874 49.4375 454.4375 C47.83735266 451.79134195 46.27907899 449.661883 44.3125 447.3125 C43.18055267 445.87944108 42.05444401 444.44175495 40.93359375 443 C40.35077637 442.25105469 39.76795898 441.50210937 39.16748047 440.73046875 C14.35155503 407.83868611 1.414624 367.571849 -5.5625 327.4375 C-5.81241699 326.07334961 -5.81241699 326.07334961 -6.06738281 324.68164062 C-11.60897056 293.35962294 -11.02581135 257.72250485 -5.5625 226.4375 C-5.35850586 225.26429199 -5.15451172 224.09108398 -4.94433594 222.88232422 C2.81882347 179.72164394 18.83879234 138.45617798 46.50390625 104.14453125 C48.76995556 101.05473974 48.76995556 101.05473974 49.4375 97.4375 C46.62631427 92.19402748 41.21467247 88.55840685 36.55078125 85.078125 C34.7269483 83.66221033 33.14968589 82.23120299 31.5625 80.5625 C28.8190721 77.8190721 27.01698952 77.49322015 23.1875 77.125 C18.85339162 77.4861757 15.65940801 78.45484258 12.4375 81.4375 C9.10755162 86.68797674 9.0182655 91.51537398 9.0859375 97.515625 C8.99778512 101.36494567 8.46557407 103.89949395 6.1171875 106.89453125 C3.4375 109.4375 3.4375 109.4375 -0.0625 110.125 C-4.56284513 109.24100363 -5.79943222 108.08350537 -8.5625 104.4375 C-9.28739714 101.20800906 -9.23595126 98.05251877 -9.19360352 94.75366211 C-9.20075882 93.78400009 -9.20791412 92.81433807 -9.21528625 91.81529236 C-9.23217563 88.61466156 -9.21276995 85.41543078 -9.19140625 82.21484375 C-9.19223485 79.98954655 -9.19469391 77.76424941 -9.19871521 75.53895569 C-9.2015733 70.87758947 -9.18686911 66.21670373 -9.15942383 61.55541992 C-9.12532175 55.57737682 -9.13136602 49.60019183 -9.1500864 43.62210751 C-9.16064856 39.02817112 -9.15172594 34.43443482 -9.13670158 29.84051704 C-9.13151492 27.63607947 -9.13200742 25.43162105 -9.13824654 23.2271862 C-9.14368989 20.14831374 -9.12335171 17.07067526 -9.09594727 13.99194336 C-9.10247314 13.07910583 -9.10899902 12.16626831 -9.11572266 11.22576904 C-9.02230279 5.06098183 -9.02230279 5.06098183 -6.67002869 1.87135315 C-4.22776823 0.20976587 -2.93180126 -0.0744112 0 0 Z M73.4375 132.4375 C52.48900306 167.73794591 41.76234835 206.81626079 37.4375 247.4375 C37.30472656 248.67628906 37.17195312 249.91507812 37.03515625 251.19140625 C32.59077792 303.73248153 41.62919045 357.17364676 64.125 404.8125 C64.57649414 405.76987061 65.02798828 406.72724121 65.49316406 407.71362305 C68.06589289 413.02376932 70.85272676 417.74822906 74.4375 422.4375 C110.7318456 381.57463537 115.06201169 305.85645597 112.125 254.125 C109.4839855 216.49371761 101.2513503 162.07949122 75.4375 132.4375 C74.7775 132.4375 74.1175 132.4375 73.4375 132.4375 Z " fill="#F9639C" transform="translate(699.5625,9.5625)"/>
<path d="M0 0 C0.680625 0.268125 1.36125 0.53625 2.0625 0.8125 C3.25859012 4.58265458 3.23546041 8.32814395 3.26782227 12.24316406 C3.27772186 12.98501953 3.28762146 13.726875 3.29782104 14.49121094 C3.32934147 16.93681679 3.35415595 19.38244205 3.37890625 21.828125 C3.39948395 23.5263519 3.42048064 25.22457377 3.44187927 26.92279053 C3.49701567 31.3877759 3.54646207 35.85280685 3.59472656 40.31787109 C3.64500322 44.87601772 3.70065709 49.43409834 3.75585938 53.9921875 C3.86333778 62.93223525 3.96480559 71.87234036 4.0625 80.8125 C5.16021729 80.25240234 6.25793457 79.69230469 7.38891602 79.11523438 C8.84380788 78.37869904 10.29881047 77.64238241 11.75390625 76.90625 C12.4756604 76.53725586 13.19741455 76.16826172 13.94104004 75.78808594 C28.93608408 68.22425202 46.40172246 69.32386734 62.17773438 74.16650391 C75.47024753 78.72246114 83.01332546 87.45770212 89.0625 99.8125 C94.28938208 112.01969106 94.91189068 125.7226691 96.40087891 138.77978516 C98.68493327 167.5773929 98.68493327 167.5773929 111.6484375 192.3515625 C116.16582087 195.2995263 121.81870061 196.01063128 127.0625 196.8125 C127.0625 198.4625 127.0625 200.1125 127.0625 201.8125 C97.0325 201.8125 67.0025 201.8125 36.0625 201.8125 C35.5675 199.3375 35.5675 199.3375 35.0625 196.8125 C36.20138672 196.53986328 36.20138672 196.53986328 37.36328125 196.26171875 C38.85408203 195.88466797 38.85408203 195.88466797 40.375 195.5 C41.36113281 195.25636719 42.34726562 195.01273438 43.36328125 194.76171875 C46.11121967 193.79536703 47.31659311 193.10082457 49.0625 190.8125 C53.9000881 176.2997357 49.4055232 156.64066062 47.75 141.75 C47.64330994 140.77395813 47.53661987 139.79791626 47.42669678 138.79229736 C45.00959101 110.07166565 45.00959101 110.07166565 31.0625 85.8125 C27.50304763 83.30162378 24.23152362 81.99954378 19.9375 81.3125 C14.98586941 82.17365315 12.08708769 84.61226871 8.875 88.375 C3.56847524 98.43909869 3.61553051 108.89186662 3.6640625 119.9765625 C3.66203661 121.62080005 3.65912091 123.26503673 3.65536499 124.90927124 C3.65096831 128.33673755 3.65728792 131.76396763 3.67138672 135.19140625 C3.68850432 139.56342615 3.6786044 143.93489442 3.66066933 148.3068943 C3.64978237 151.69573049 3.65329978 155.08443778 3.6610527 158.47327805 C3.66303975 160.08467043 3.66064859 161.6960749 3.65361404 163.30745316 C3.41393053 178.40149218 3.41393053 178.40149218 10.1953125 191.54296875 C13.79346859 193.98941379 18.10753975 194.77153402 22.296875 195.7578125 C25.0625 196.8125 25.0625 196.8125 26.015625 198.8671875 C26.03882813 199.83011719 26.03882813 199.83011719 26.0625 200.8125 C24.19562423 202.67937577 21.51968552 201.93256498 19.03617859 201.93692017 C18.17015518 201.93332489 17.30413177 201.92972961 16.41186523 201.92602539 C15.0510231 201.92624443 15.0510231 201.92624443 13.66268921 201.9264679 C10.64880015 201.92576841 7.63497207 201.91797434 4.62109375 201.91015625 C2.53744033 201.9082922 0.45378646 201.90686824 -1.62986755 201.90586853 C-7.12573446 201.90204234 -12.62157513 201.8922112 -18.11743164 201.88116455 C-23.72086227 201.8709526 -29.32429713 201.86637137 -34.92773438 201.86132812 C-45.93100114 201.85058902 -56.93424839 201.83351139 -67.9375 201.8125 C-68.2675 200.4925 -68.5975 199.1725 -68.9375 197.8125 C-66.1253513 196.26645445 -63.72082884 195.50422443 -60.5625 195 C-55.86892595 193.97328068 -53.17350001 192.51078572 -49.9375 188.8125 C-46.67354615 181.43186052 -46.50234787 173.98555667 -46.53344727 166.04174805 C-46.52315239 164.18356445 -46.52315239 164.18356445 -46.51264954 162.2878418 C-46.49757263 158.9176454 -46.49586331 155.54800633 -46.50159192 152.17781806 C-46.50470278 149.35021944 -46.49857017 146.5226698 -46.49255317 143.69507819 C-46.47854893 137.01583349 -46.48003393 130.33671679 -46.49145508 123.6574707 C-46.50292289 116.80002747 -46.48887403 109.94297596 -46.4620586 103.08558434 C-46.4397986 97.16842793 -46.43328752 91.25139354 -46.43913502 85.3341983 C-46.44248248 81.81324075 -46.4402393 78.29253393 -46.42288399 74.77161217 C-46.40433797 70.83806783 -46.41870728 66.90499339 -46.43579102 62.97143555 C-46.42612305 61.82763931 -46.41645508 60.68384308 -46.40649414 59.50538635 C-46.49704556 49.47944817 -47.98478993 39.45000246 -54.9375 31.8125 C-57.21721272 30.5067276 -57.21721272 30.5067276 -59.625 29.6875 C-62.01171875 28.8046875 -62.01171875 28.8046875 -63.9375 27.8125 C-64.2675 26.8225 -64.5975 25.8325 -64.9375 24.8125 C-64.6075 24.1525 -64.2775 23.4925 -63.9375 22.8125 C-60.95287238 22.31455602 -58.00208218 21.9177335 -55 21.5625 C-36.99536081 19.10321971 -20.78754694 12.93223171 -6.1640625 2.0234375 C-2.9375 -0.1875 -2.9375 -0.1875 0 0 Z " fill="#1E76EA" transform="translate(557.9375,153.1875)"/>
<path d="M0 0 C4.34738116 4.0437038 7.63874824 8.49521318 11 13.375 C12.02067838 14.84125371 13.04151009 16.3074007 14.0625 17.7734375 C14.55105469 18.4859668 15.03960938 19.19849609 15.54296875 19.93261719 C16.48990028 21.2762191 17.47057968 22.59687042 18.48828125 23.88769531 C20.58852608 26.57807936 21.9309443 28.62554303 22.5546875 32.0078125 C21.84705096 35.82506312 20.15900478 38.64123874 18.125 41.875 C-0.74117888 73.79541228 -9.11233432 111.48500931 -13 148 C-13.13277344 149.23878906 -13.26554688 150.47757813 -13.40234375 151.75390625 C-18.35700192 210.32746795 -6.08633934 267.44041188 20.76171875 319.41015625 C22.87976179 323.84000653 22.87976179 323.84000653 23 326 C18.42246328 335.25397084 10.82914126 343.33238582 4 351 C3.48050781 351.63808594 2.96101562 352.27617187 2.42578125 352.93359375 C1 354 1 354 -0.93359375 353.96875 C-21.87406069 344.15166909 -36.68020188 299.8146817 -43.90234375 280.10986328 C-49.9005833 263.11574065 -53.96017209 245.74517382 -57 228 C-57.16516113 227.09491699 -57.33032227 226.18983398 -57.50048828 225.25732422 C-63.04558203 193.93069843 -62.46424561 158.29035477 -57 127 C-56.79600586 125.82679199 -56.59201172 124.65358398 -56.38183594 123.44482422 C-48.83808658 81.50399356 -33.39562137 41.75816329 -7.5625 7.6875 C-6.94266235 6.86862305 -6.94266235 6.86862305 -6.31030273 6.03320312 C-4.33032053 3.48324464 -2.71953801 1.81302534 0 0 Z " fill="#DC549E" transform="translate(751,109)"/>
<path d="M0 0 C1.14814997 2.29629994 1.30769809 4.07698086 1.5625 6.625 C1.64628906 7.44226563 1.73007812 8.25953125 1.81640625 9.1015625 C1.87699219 9.72804687 1.93757813 10.35453125 2 11 C2.57105469 10.54109375 3.14210938 10.0821875 3.73046875 9.609375 C16.01155306 0.31558147 29.00859333 -1.46490808 44 0 C58.86822554 2.16061405 71.51403287 8.22175599 80.82421875 20.3828125 C90.14369597 34.9841093 90.96787611 52.16998435 92.93359375 68.921875 C95.12640754 87.85175358 95.12640754 87.85175358 98 106.6875 C98.21257446 107.99448853 98.21257446 107.99448853 98.42944336 109.32788086 C99.34845618 114.3479569 100.59614428 118.02679431 104 122 C106.29447341 123.32048087 106.29447341 123.32048087 108.75 123.875 C109.54921875 124.09929687 110.3484375 124.32359375 111.171875 124.5546875 C111.77515625 124.70164062 112.3784375 124.84859375 113 125 C113.042721 126.66611905 113.04063832 128.33382885 113 130 C111.25707823 131.74292177 108.99376505 131.11980303 106.67175293 131.12442017 C105.90858765 131.12082489 105.14542236 131.11722961 104.35913086 131.11352539 C103.15922264 131.11374443 103.15922264 131.11374443 101.93507385 131.1139679 C99.27830335 131.11326855 96.62160207 131.10547518 93.96484375 131.09765625 C92.12781309 131.09579215 90.29078194 131.09436821 88.45375061 131.09336853 C83.60890338 131.08954275 78.76408592 131.07971196 73.91925049 131.06866455 C68.97937422 131.05845172 64.03949315 131.05387119 59.09960938 131.04882812 C49.39972647 131.03808974 39.69986571 131.0210126 30 131 C29.67 129.35 29.34 127.7 29 126 C29.66386719 125.78085937 30.32773437 125.56171875 31.01171875 125.3359375 C36.56025564 123.34332425 41.20942846 121.5009419 44 116 C46.68816783 108.69208267 47.3452942 102.37040452 46.5 94.6875 C46.35377197 93.16648682 46.35377197 93.16648682 46.20458984 91.61474609 C45.89868449 88.51097995 45.57088422 85.4100886 45.2401123 82.30889893 C44.8680757 78.73142747 44.52621063 75.15109608 44.17987061 71.57106018 C43.77830652 67.4565547 43.36131894 63.34370413 42.94067383 59.23110962 C42.7318116 57.17598526 42.52683504 55.12046194 42.32592773 53.06454468 C40.70507692 31.85758495 40.70507692 31.85758495 29.3125 14.6875 C24.50495443 12.23837301 20.08658498 11.12356229 14.78515625 12.62890625 C10.00694724 14.75552069 7.41330943 17.26620074 5 22 C1.41556241 31.99869433 1.82503962 42.63465869 1.796875 53.11328125 C1.79404762 53.82923147 1.79122025 54.54518169 1.78830719 55.28282738 C1.77340249 59.07030977 1.76411749 62.85775491 1.75976562 66.64526367 C1.75428695 70.52152567 1.73024663 74.39743542 1.70179367 78.27358723 C1.68301973 81.28764294 1.67795397 84.30161613 1.67642975 87.31572533 C1.67343698 88.74323646 1.66552542 90.17074735 1.65224457 91.59819984 C1.56747844 101.40687947 1.85414808 111.19227337 6.625 120 C10.04240314 122.87781317 13.85214662 124.41353471 18 126 C17.67 127.65 17.34 129.3 17 131 C-9.73 131 -36.46 131 -64 131 C-64.495 128.525 -64.495 128.525 -65 126 C-64.39671875 125.75765625 -63.7934375 125.5153125 -63.171875 125.265625 C-55.74447616 122.28303422 -55.74447616 122.28303422 -51.13671875 116.02734375 C-48.24303237 108.0319923 -47.84335902 100.01423056 -47.83203125 91.59375 C-47.82870285 90.71078247 -47.82537445 89.82781494 -47.82194519 88.91809082 C-47.81690746 87.05575069 -47.81453588 85.19340163 -47.81469727 83.33105469 C-47.81252767 80.53564837 -47.7943847 77.74064834 -47.77539062 74.9453125 C-47.21319349 52.61276127 -47.21319349 52.61276127 -55.75 32.6875 C-58.94916419 30.28812686 -62.20968936 29.26343688 -66 28 C-66 26.35 -66 24.7 -66 23 C-64.8140625 22.84144531 -63.628125 22.68289062 -62.40625 22.51953125 C-42.31895665 19.69318891 -22.97300986 14.1113006 -7 1 C-4 0 -4 0 0 0 Z " fill="#216AE9" transform="translate(364,222)"/>
<path d="M0 0 C15.5531867 -0.74062794 34.03560782 2.2431777 46.296875 12.41796875 C62.88481306 27.8264892 62.96445377 51.47494563 65.22412109 72.57202148 C67.31629685 95.50976113 67.31629685 95.50976113 77 116 C79.9560226 118.0547962 82.70026813 118.34475801 86.25 118.625 C87.14203125 118.69976562 88.0340625 118.77453125 88.953125 118.8515625 C89.96632813 118.92503906 89.96632813 118.92503906 91 119 C90.80959986 122.42720252 90.31102424 123.71489445 87.75 126.0625 C75.11731523 133.62366899 58.11760707 134.62562284 43.84765625 132.5390625 C35.90108009 130.40491093 28.64263576 125.86302678 24 119 C20.98985211 120.44322159 18.19985748 122.0991124 15.375 123.875 C-1.16157579 133.80178781 -19.52685278 135.20308382 -38.1953125 131.03515625 C-48.93550615 128.11302964 -56.55032707 123.3851288 -62.30859375 113.828125 C-66.68488048 104.80298006 -66.46001821 93.34810177 -63.375 83.9375 C-59.62551019 75.24076669 -53.63932738 69.84953384 -45 66 C-35.9111778 63.04207656 -26.51770903 61.56459466 -17.11523438 59.98242188 C-2.29385772 57.7213666 -2.29385772 57.7213666 10 50 C14.76101512 40.24653153 10.39466136 24.95689295 7 15 C5.32755851 11.82379673 3.55140411 9.0239172 1.390625 6.1640625 C0 4 0 4 0 0 Z M2.875 63.5 C1.94945312 64.10070312 1.02390625 64.70140625 0.0703125 65.3203125 C-7.96704296 70.65584508 -16.17772537 76.37106302 -19 86 C-20.73257666 94.80971182 -20.03441527 102.12729752 -15.25 109.8125 C-10.99941794 115.72008863 -6.17870518 118.66159734 1 120 C7.06872475 120.09548693 11.23995735 118.96670221 16 115 C19.51209431 111.00347888 20.13672102 107.89448346 19.83738708 102.6103363 C19.78921341 101.89458939 19.74103973 101.17884247 19.69140625 100.44140625 C19.64383682 99.69145889 19.5962674 98.94151154 19.54725647 98.1688385 C18.97259473 89.72412152 17.97374525 81.33572642 16.9375 72.9375 C16.7488765 71.37701016 16.56072373 69.81646335 16.37304688 68.25585938 C15.92075176 64.50323167 15.4622219 60.75141737 15 57 C10.63263209 57 6.40513607 61.14977354 2.875 63.5 Z " fill="#2165E9" transform="translate(205,222)"/>
<path d="M0 0 C9.11444597 7.69755153 14.34324175 16.4240967 15.42578125 28.33203125 C14.7336783 36.22200484 12.17822189 42.63733666 6.11328125 47.89453125 C-1.7683456 53.11631301 -10.99485685 54.1849618 -20.1875 55.18359375 C-21.62478706 55.34581924 -21.62478706 55.34581924 -23.09111023 55.51132202 C-25.10188026 55.73728902 -27.11294014 55.96069018 -29.12426758 56.18164062 C-32.20784119 56.52047873 -35.29048031 56.86697404 -38.37304688 57.21484375 C-40.33198181 57.43403605 -42.2909646 57.6528012 -44.25 57.87109375 C-45.171866 57.97418854 -46.09373199 58.07728333 -47.04353333 58.1835022 C-47.89839828 58.27715057 -48.75326324 58.37079895 -49.6340332 58.46728516 C-50.384897 58.55007721 -51.1357608 58.63286926 -51.90937805 58.71817017 C-53.88671875 58.89453125 -53.88671875 58.89453125 -56.88671875 58.89453125 C-52.11844437 73.31397637 -45.4038814 83.81773476 -31.94921875 91.14453125 C-21.54564351 96.03075054 -11.83083668 95.75559136 -1.0703125 92.22265625 C6.27476724 89.1584512 15.46919866 82.18269642 19.11328125 74.89453125 C20.43328125 75.55453125 21.75328125 76.21453125 23.11328125 76.89453125 C22.66649662 86.94718545 16.5152678 95.37381055 9.78515625 102.4765625 C-6.6765781 117.37395075 -26.5551793 121.97689635 -48.22363281 121.08544922 C-65.79867978 119.82548527 -82.67857685 110.48383952 -94.24365234 97.35400391 C-106.78917509 82.01314148 -110.43172198 62.30935759 -108.71240234 42.9296875 C-107.11824851 27.97079829 -101.53971379 12.96321927 -89.88671875 2.89453125 C-64.76876865 -16.16715886 -25.94911409 -18.92634979 0 0 Z M-53.2578125 -0.41015625 C-62.92274432 13.75742927 -62.30875612 33.53830355 -59.88671875 49.89453125 C-59.55671875 50.88453125 -59.22671875 51.87453125 -58.88671875 52.89453125 C-47.38936888 52.5588422 -36.73193899 51.2063689 -27.546875 43.71875 C-23.55688486 39.33445495 -21.74537592 33.63133436 -21.38671875 27.76953125 C-21.96637992 16.53609749 -25.22201257 3.17300747 -33.63671875 -4.66796875 C-41.11489561 -7.9756239 -47.93353621 -6.99344944 -53.2578125 -0.41015625 Z " fill="#1E75EA" transform="translate(981.88671875,234.10546875)"/>
<path d="M0 0 C-1.15082725 3.45248176 -1.7475427 3.68652725 -4.6875 5.5625 C-11.36844479 10.38429498 -15.60539729 17.91130429 -17 26 C-17.84772445 35.19251199 -16.86316844 43.63550544 -11.3515625 51.2890625 C-8.80572701 54.25735104 -6.27878605 56.78316641 -3.1875 59.1875 C0.61371316 64.07477406 1 70.8903092 1 77 C12.88 77.33 24.76 77.66 37 78 C37.33 79.32 37.66 80.64 38 82 C35.99496491 84.00503509 31.99974556 83.25588663 29.24609375 83.31640625 C28.08292381 83.3475779 28.08292381 83.3475779 26.89625549 83.37937927 C24.41009692 83.44495802 21.92382955 83.50379799 19.4375 83.5625 C17.75584796 83.60567733 16.07420706 83.64929136 14.39257812 83.69335938 C10.26183129 83.80064779 6.13097464 83.90189132 2 84 C1.11497424 88.56022227 0.86822016 92.88505843 0.85473633 97.52734375 C0.85137772 98.25675674 0.8480191 98.98616974 0.84455872 99.73768616 C0.83509958 102.1376417 0.83310759 104.53752699 0.83203125 106.9375 C0.82881321 108.62174507 0.82544874 110.30598987 0.82194519 111.99023438 C0.81596507 115.52067715 0.81410394 119.05109549 0.81469727 122.58154297 C0.81479837 127.06855247 0.80119466 131.5554019 0.78392506 136.04237366 C0.77270813 139.52403456 0.77078107 143.00565809 0.77130699 146.48733521 C0.77013955 148.13925727 0.76578869 149.79118072 0.75797462 151.44308472 C0.04425844 171.21286405 0.04425844 171.21286405 7 189 C11.04475952 192.57443865 14.85473613 193.64245602 20.046875 194.5078125 C22 195 22 195 24 197 C23.67 198.32 23.34 199.64 23 201 C-8.02 201 -39.04 201 -71 201 C-71 199.35 -71 197.7 -71 196 C-69.57107422 195.65388672 -69.57107422 195.65388672 -68.11328125 195.30078125 C-66.85902344 194.97464844 -65.60476563 194.64851562 -64.3125 194.3125 C-63.07113281 193.99925781 -61.82976563 193.68601562 -60.55078125 193.36328125 C-55.98614472 191.61074203 -53.19189203 189.64679528 -51.13790417 185.08557224 C-49.14554999 179.38070238 -48.58276616 174.36645511 -48.65942383 168.34936523 C-48.65898575 167.43121536 -48.65854767 166.51306549 -48.65809631 165.5670929 C-48.6601688 162.56403551 -48.68342657 159.56155233 -48.70703125 156.55859375 C-48.71263269 154.46395676 -48.7169002 152.36931581 -48.71989441 150.27467346 C-48.7313 144.78540018 -48.76073012 139.2963684 -48.79400635 133.80718994 C-48.82479989 128.19636297 -48.83841953 122.58549665 -48.85351562 116.97460938 C-48.88560413 105.98295023 -48.93833686 94.99153306 -49 84 C-60.385 83.505 -60.385 83.505 -72 83 C-72.495 80.525 -72.495 80.525 -73 78 C-65.08 77.67 -57.16 77.34 -49 77 C-48.32534939 72.95209637 -47.86915044 69.29931338 -47.70996094 65.24145508 C-46.92542694 45.6979918 -43.19172077 23.51425987 -29 9 C-21.05528212 2.66905294 -10.32800916 -2.73388478 0 0 Z " fill="#1E73EA" transform="translate(1074,152)"/>
<path d="M0 0 C4.96006849 0.94322614 9.05870368 1.33586421 13.3828125 -1.546875 C16.0703125 -1.171875 16.0703125 -1.171875 18.3828125 -0.546875 C19.70798054 7.17857271 20.70795643 14.9077945 21.5078125 22.703125 C21.59530762 23.52973633 21.68280273 24.35634766 21.77294922 25.20800781 C22.31233061 30.64957384 22.45967413 35.98496893 22.3828125 41.453125 C21.0628125 41.783125 19.7428125 42.113125 18.3828125 42.453125 C15.34194328 38.96375 14.045837 35.07073765 12.5703125 30.765625 C8.78405891 20.25497555 4.24390351 12.21999849 -5.8046875 6.703125 C-13.140111 3.86308272 -21.32888685 3.56293681 -28.6171875 6.453125 C-32.31003478 9.67454497 -33.8254072 12.00243245 -34.6171875 16.828125 C-34.85708128 21.59401479 -34.24865457 25.41876223 -31.6171875 29.453125 C-24.27006049 37.37615508 -13.0103742 41.45556208 -3.39404297 45.96435547 C-1.02566407 47.07501843 1.34082436 48.18972008 3.70556641 49.30810547 C6.06615194 50.42318957 8.43155058 51.52815649 10.80224609 52.62158203 C21.6298051 57.73385251 33.17333194 64.74544944 38.3203125 76.140625 C41.38593699 85.93146322 39.69931417 96.34760521 35.3828125 105.453125 C26.86557291 119.59703841 13.01084123 125.36413996 -2.2578125 129.65625 C-18.86441147 133.59548976 -41.11195454 133.6044792 -56.30859375 125.01953125 C-65.46135978 118.80927884 -72.35415961 111.5666085 -74.6171875 100.453125 C-75.07492542 93.70149072 -74.61083623 86.99863322 -70.0703125 81.62109375 C-64.92080291 76.93868569 -59.82013051 74.95876733 -52.7578125 75.21484375 C-46.51861057 75.90935345 -42.02267694 77.55378361 -37.6796875 82.203125 C-33.6054189 87.39285461 -32.31678608 91.84127786 -32.9921875 98.390625 C-33.18689957 99.74681722 -33.39045424 101.10191733 -33.6171875 102.453125 C-34.6690625 102.35 -35.7209375 102.246875 -36.8046875 102.140625 C-40.74510331 102.09785655 -40.74510331 102.09785655 -43.4921875 104.828125 C-46.85914621 108.98730929 -46.96937691 112.22207647 -46.6171875 117.453125 C-46.2871875 118.443125 -45.9571875 119.433125 -45.6171875 120.453125 C-43.36974994 121.60333025 -43.36974994 121.60333025 -40.6171875 122.453125 C-39.27140625 122.96552734 -39.27140625 122.96552734 -37.8984375 123.48828125 C-29.86916197 125.8492706 -20.00264147 125.82643154 -12.48828125 121.86328125 C-8.22821159 118.65266507 -5.29454469 114.48519658 -3.6171875 109.453125 C-2.86472867 103.40120612 -3.1285712 98.42287969 -6.85986328 93.4387207 C-13.9292808 85.45100569 -24.62840718 81.33934139 -34.1171875 76.953125 C-49.20017526 69.9809699 -64.29353418 62.82391277 -70.92578125 46.49609375 C-74.00422395 37.39990432 -73.22485488 28.29269095 -69.6171875 19.453125 C-64.10491737 9.04105919 -54.43039311 3.97973305 -43.609375 0.48046875 C-29.73496225 -3.11350564 -13.98311179 -2.85369628 0 0 Z " fill="#206FEA" transform="translate(92.6171875,223.546875)"/>
<path d="M0 0 C2.76891906 2.00392076 4.68726249 3.6104918 5.46042061 7.04567146 C5.64501982 9.60399674 5.66402903 12.11896552 5.63110352 14.68383789 C5.63825882 15.65349991 5.64541412 16.62316193 5.65278625 17.62220764 C5.66967563 20.82283844 5.65026995 24.02206922 5.62890625 27.22265625 C5.62973485 29.44795345 5.63219391 31.67325059 5.63621521 33.89854431 C5.6390733 38.55991053 5.62436911 43.22079627 5.59692383 47.88208008 C5.56282175 53.86012318 5.56886602 59.83730817 5.5875864 65.81539249 C5.59814856 70.40932888 5.58922594 75.00306518 5.57420158 79.59698296 C5.56901492 81.80142053 5.56950742 84.00587895 5.57574654 86.2103138 C5.58118989 89.28918626 5.56085171 92.36682474 5.53344727 95.44555664 C5.53997314 96.35839417 5.54649902 97.27123169 5.55322266 98.21173096 C5.45991952 104.36881476 5.45991952 104.36881476 3.1502533 107.53855896 C0.33104691 109.45466062 -1.59161997 109.93044122 -5 110 C-7.82580497 108.77976604 -9.4737815 107.83495165 -11.12353516 105.21728516 C-12.16438358 102.5841416 -12.25512428 100.53958758 -12.2734375 97.7109375 C-12.2940625 96.68613281 -12.3146875 95.66132812 -12.3359375 94.60546875 C-12.36169482 92.47533814 -12.38009219 90.34510404 -12.390625 88.21484375 C-12.55225827 81.02216315 -13.83935987 75.46113159 -17 69 C-17.50406372 67.90582764 -17.50406372 67.90582764 -18.01831055 66.78955078 C-19.31788053 64.42052617 -20.51579631 64.00247512 -23 63 C-23.82113281 62.64421875 -24.64226563 62.2884375 -25.48828125 61.921875 C-26.42027344 61.53515625 -27.35226562 61.1484375 -28.3125 60.75 C-29.3746875 60.30785156 -30.436875 59.86570312 -31.53125 59.41015625 C-33.87599058 58.45694527 -36.23064027 57.52780868 -38.59375 56.62109375 C-50.04447678 52.20679047 -62.70777698 47.18600599 -72 39 C-73.03749994 36.09500016 -73 34.08004922 -73 31 C-70.012329 25.96582908 -65.93050263 21.78680543 -61.74609375 17.7421875 C-58.97833268 14.98061829 -56.50807902 11.99746029 -54 9 C-53.87189941 9.85827393 -53.87189941 9.85827393 -53.74121094 10.73388672 C-52.78355191 13.66174939 -51.30983291 15.07836788 -49.140625 17.2578125 C-48.35429688 18.04800781 -47.56796875 18.83820313 -46.7578125 19.65234375 C-45.93023438 20.46832031 -45.10265625 21.28429687 -44.25 22.125 C-43.43789063 22.94871094 -42.62578125 23.77242188 -41.7890625 24.62109375 C-40.99757813 25.40871094 -40.20609375 26.19632812 -39.390625 27.0078125 C-38.66907227 27.72598145 -37.94751953 28.44415039 -37.20410156 29.18408203 C-34.27534343 31.59703097 -31.55255946 32.89469597 -27.75390625 33.15234375 C-21.93705797 32.58206451 -18.97237718 31.35992618 -15 27 C-12.71281583 21.47921063 -12.64006861 16.24203848 -12.44140625 10.33984375 C-11.96783743 6.75664608 -11.16135713 4.86648074 -9 2 C-5.48175489 -0.34549674 -4.14224306 -0.57991403 0 0 Z " fill="#ED937A" transform="translate(852,453)"/>
<path d="M0 0 C1.16982422 -0.05607422 1.16982422 -0.05607422 2.36328125 -0.11328125 C5.73428579 0.50426412 6.65255132 1.54199838 8.6875 4.3125 C9.29731698 7.49165622 9.24403189 10.63787525 9.22094727 13.86694336 C9.23387062 15.31880791 9.23387062 15.31880791 9.24705505 16.80000305 C9.26976654 20.00105495 9.2629662 23.20123504 9.25390625 26.40234375 C9.25913973 28.62667604 9.26541519 30.85100609 9.27268982 33.07533264 C9.28310379 37.73839761 9.27851837 42.4011576 9.26391602 47.06420898 C9.24673185 53.04114529 9.2702145 59.01711997 9.30540562 64.99394894 C9.3273627 69.58791988 9.32594208 74.18166018 9.3176403 78.77566719 C9.31681977 80.97929501 9.32370259 83.18293959 9.33841133 85.38651848 C9.35582425 88.46783468 9.34134057 91.54741585 9.31860352 94.62866211 C9.33614182 95.99488205 9.33614182 95.99488205 9.35403442 97.38870239 C9.28697514 101.85354844 9.13031134 103.7344812 6.33555603 107.38258362 C3.6875 109.3125 3.6875 109.3125 0.6875 109.875 C-3.27973761 109.13114295 -4.69516628 108.43875972 -7.3125 105.3125 C-8.35832236 101.69694271 -8.82453823 98.03875348 -9.3125 94.3125 C-10.45182769 85.96825024 -10.45182769 85.96825024 -15.3125 79.3125 C-19.30612368 77.04584872 -22.78781035 76.63379655 -27.3125 77.3125 C-32.18634809 79.98776592 -36.01610346 83.97433752 -39.859375 87.9296875 C-40.48062256 88.56696777 -41.10187012 89.20424805 -41.74194336 89.86083984 C-42.98835125 91.15265687 -44.22127724 92.45763139 -45.43969727 93.77587891 C-46.01260498 94.37577637 -46.5855127 94.97567383 -47.17578125 95.59375 C-47.93822144 96.41456055 -47.93822144 96.41456055 -48.71606445 97.25195312 C-50.3125 98.3125 -50.3125 98.3125 -52.40820312 98.078125 C-54.85110006 97.09595516 -55.85471379 95.85996728 -57.5 93.8125 C-61.49298763 89.02091484 -65.85977945 84.6743487 -70.3125 80.3125 C-69.3225 79.8175 -69.3225 79.8175 -68.3125 79.3125 C-68.415625 78.425625 -68.51875 77.53875 -68.625 76.625 C-68.20754558 72.19998313 -66.58384849 71.23286475 -63.3125 68.3125 C-53.08803403 60.86324622 -41.60514362 56.42224136 -29.84375 52.01171875 C-22.64117481 49.21981145 -16.07169524 46.17471637 -12.11547852 39.203125 C-9.16794467 32.24749948 -8.75444926 25.99700364 -8.75 18.5 C-8.74104447 16.3058962 -8.71938433 14.1117989 -8.68359375 11.91796875 C-8.6825061 10.48167114 -8.6825061 10.48167114 -8.68139648 9.01635742 C-7.89640303 3.26268269 -5.64673346 0.175594 0 0 Z " fill="#ED937A" transform="translate(848.3125,9.6875)"/>
<path d="M0 0 C6.03252146 4.93569937 9.89530037 11.51558785 10.6875 19.3125 C10.90782973 27.9312808 8.84938059 35.61552048 3.046875 42.1640625 C-3.41046696 48.06874906 -10.6700545 50.28594871 -19.3125 50.3125 C-27.24611178 49.69914514 -33.9287493 46.22405797 -39.140625 40.19921875 C-44.43503712 32.75877065 -46.00257097 26.17432375 -44.91015625 17.12109375 C-43.18216362 9.00065779 -39.18900646 2.9171673 -32.3125 -1.6875 C-21.85515076 -7.75276256 -9.91321412 -6.86443317 0 0 Z " fill="#3BA2F1" transform="translate(791.3125,14.6875)"/>
<path d="M0 0 C8.33844547 4.96434813 12.05262286 11.6405213 14.4375 20.9375 C15.59700468 28.05086579 13.76505926 35.51839571 9.73828125 41.43359375 C4.57285284 47.6138411 -1.34834662 52.11608466 -9.5625 52.9375 C-18.28835825 53.52908361 -25.57687111 51.96773104 -32.4375 46.3125 C-38.93814505 39.94992175 -40.76367573 34.50183612 -41.0625 25.4375 C-40.88443139 19.09062586 -39.93430166 14.31828453 -36.5625 8.9375 C-36.005625 8.03 -35.44875 7.1225 -34.875 6.1875 C-25.86786434 -2.57619956 -11.50502654 -5.34913582 0 0 Z " fill="#1C81EC" transform="translate(1103.5625,158.0625)"/>
<path d="M0 0 C5.88055954 3.49934705 10.04055967 8.2911292 12.55859375 14.66796875 C14.54877566 22.66402506 14.3175343 31.09602944 10.40625 38.4296875 C6.16854478 45.17656029 0.90403643 49.52734792 -6.73828125 51.9375 C-14.93857772 53.47407563 -22.56254685 52.55815813 -29.78125 48.3203125 C-36.09771759 43.58568912 -39.95707146 38.01606571 -41.78125 30.3203125 C-42.95852814 21.74825604 -41.14859888 14.52077439 -36.4609375 7.28125 C-27.87185434 -3.74844695 -12.32310646 -5.72144228 0 0 Z " fill="#56ADF5" transform="translate(193.78125,224.6796875)"/>
<path d="M0 0 C9.59277597 0 13.25958949 0.4745741 19.72265625 6.64453125 C26.29370178 13.79679948 27.57571688 19.95680454 27.3515625 29.5546875 C26.59388213 36.97995509 23.32507869 42.79325639 18 48 C11.50599036 52.78505974 8.69593261 53 0 53 C0 35.51 0 18.02 0 0 Z " fill="#6A61F0" transform="translate(180,223)"/>
<path d="M0 0 C0.02479481 4.46573511 0.04290486 8.9314333 0.05493164 13.3972168 C0.05994766 14.91512755 0.06676203 16.4330335 0.07543945 17.95092773 C0.08762497 20.13787016 0.09325572 22.32474846 0.09765625 24.51171875 C0.10551147 26.48338013 0.10551147 26.48338013 0.11352539 28.49487305 C0.01641619 31.4931458 -0.34322876 34.08914091 -1 37 C-1.04200626 38.8745294 -1.04131228 40.75045518 -1 42.625 C-0.92916399 45.85689283 -0.96885417 47.90656252 -2 51 C-1.34 51.33 -0.68 51.66 0 52 C-5.41723567 51.66142277 -9.16537404 48.57846674 -13 45 C-18.2877405 38.55639663 -20.32107737 31.88934875 -19.9375 23.625 C-18.91219827 15.12795922 -15.45260617 8.48428758 -8.74609375 3.15625 C-5.68605033 1.12991253 -3.72918472 0 0 0 Z " fill="#35B8F3" transform="translate(766,11)"/>
<path d="M0 0 C6.3515669 1.27031338 10.47126744 3.8613219 14.5546875 8.9296875 C19.38603798 16.27677077 21.02331704 23.73851553 19.60546875 32.4140625 C17.70334328 40.34163059 13.14383723 46.17236639 6.4296875 50.75390625 C4 52 4 52 1 52 C0.67 34.84 0.34 17.68 0 0 Z " fill="#2D2EE3" transform="translate(1098,157)"/>
<path d="M0 0 C6.62371717 2.64948687 9.38760926 6.1088166 12.8125 12.25 C15.54493443 20.87874029 15.79082357 28.67125625 12 37 C8.70661235 42.82990982 4.27909239 47.41199571 -2 50 C-2.66 49.67 -3.32 49.34 -4 49 C-5.02118753 44.91524988 -4.81151067 42.05755333 -4 38 C-4.20625 36.96875 -4.4125 35.9375 -4.625 34.875 C-5 32 -5 32 -3.6875 30.125 C-2 29 -2 29 0 29 C0 19.43 0 9.86 0 0 Z " fill="#4C60EC" transform="translate(787,13)"/>
<path d="M0 0 C3.3 0 6.6 0 10 0 C10.66 0.66 11.32 1.32 12 2 C11.34 2 10.68 2 10 2 C10.00222061 2.6241832 10.00444122 3.24836639 10.00672913 3.89146423 C10.0287808 10.36342804 10.0439061 16.83538125 10.05493164 23.30737305 C10.05997349 25.72567172 10.06680678 28.14396733 10.07543945 30.56225586 C10.08751157 34.02979283 10.09322963 37.49728966 10.09765625 40.96484375 C10.10281754 42.05337143 10.10797882 43.14189911 10.11329651 44.26341248 C10.11337204 45.26437454 10.11344757 46.26533661 10.11352539 47.29663086 C10.115746 48.18265488 10.11796661 49.06867889 10.12025452 49.98155212 C10 52 10 52 9 53 C6.03 53 3.06 53 0 53 C0 35.51 0 18.02 0 0 Z " fill="#6089F2" transform="translate(180,223)"/>
<path d="M0 0 C0 15.51 0 31.02 0 47 C-5.2932241 45.67669398 -7.6766936 43.23316755 -11 39 C-15.34199229 31.54392577 -16.48100533 23.6910542 -14.3046875 15.328125 C-12.32776474 9.84590222 -9.57511236 4.74015436 -5 1 C-3.28882424 0.44952986 -1.80103956 0 0 0 Z " fill="#47CEF7" transform="translate(167,226)"/>
<path d="M0 0 C4.34738116 4.0437038 7.63874824 8.49521318 11 13.375 C12.02067838 14.84125371 13.04151009 16.3074007 14.0625 17.7734375 C14.55194092 18.48193848 15.04138184 19.19043945 15.5456543 19.92041016 C16.94581237 21.92251633 18.38554451 23.89062471 19.83203125 25.859375 C22 29 22 29 22.6875 31.875 C21.63985036 36.63704383 18.8858776 40.13498536 16 44 C13.89520828 40.84281242 13.14021391 38.32465066 12.125 34.6875 C10.19855316 28.32030989 8.83566775 23.99785682 3.25 20.0625 C-2.23584741 18.26904988 -6.72596144 19.30708369 -11.8125 21.625 C-15 23 -15 23 -18 22 C-15.75960935 18.88879404 -13.50606627 15.78735295 -11.25 12.6875 C-10.61578125 11.80642578 -9.9815625 10.92535156 -9.328125 10.01757812 C-8.709375 9.17001953 -8.090625 8.32246094 -7.453125 7.44921875 C-6.88754883 6.66893311 -6.32197266 5.88864746 -5.73925781 5.0847168 C-3.99617639 2.99541693 -2.2376455 1.5324871 0 0 Z " fill="#A55696" transform="translate(751,109)"/>
<path d="M0 0 C0 11.88 0 23.76 0 36 C-7 36 -7 36 -11 35 C-11.33 23.78 -11.66 12.56 -12 1 C-7 0 -7 0 0 0 Z " fill="#52B0F5" transform="translate(777,9)"/>
<path d="M0 0 C8 1 8 1 10 2 C11.09035011 7.34271556 11.09887918 12.68627132 11.125 18.125 C11.13200928 19.14605835 11.13200928 19.14605835 11.13916016 20.18774414 C11.12641242 24.21945987 11.04595986 28.0950832 10 32 C6.49045857 33.94974524 4.02677867 35 0 35 C0 23.45 0 11.9 0 0 Z " fill="#5E90F3" transform="translate(777,10)"/>
<path d="M0 0 C0 10.56 0 21.12 0 32 C-6.59061769 29.36375292 -10.11896046 25.58761208 -12.9375 19.0625 C-14.36890061 14.61308604 -14.25963484 11.51986619 -13 7 C-9.67690496 2.97355049 -5.24515311 0 0 0 Z " fill="#4ACBF6" transform="translate(766,11)"/>
<path d="M0 0 C2.97 0.495 2.97 0.495 6 1 C7.12410877 9.07714113 7.32726162 17.04592642 7.4050293 25.19189453 C7.42676991 26.90466271 7.46105853 28.61731524 7.50756836 30.32958984 C7.57435993 32.81918034 7.60196791 35.30651717 7.62109375 37.796875 C7.64892441 38.56046326 7.67675507 39.32405151 7.70542908 40.11077881 C7.69702148 42.27636719 7.69702148 42.27636719 7 46 C2.26195103 50 2.26195103 50 0 50 C0 33.5 0 17 0 0 Z " fill="#6674F1" transform="translate(190,225)"/>
<path d="M0 0 C1.65 0 3.3 0 5 0 C5 17.49 5 34.98 5 53 C3.35 53 1.7 53 0 53 C0 35.51 0 18.02 0 0 Z " fill="#5C99F4" transform="translate(180,223)"/>
<path d="M0 0 C0 17.16 0 34.32 0 52 C0.66 52.33 1.32 52.66 2 53 C-3.75 52.25 -3.75 52.25 -6 50 C-6.24050903 48.01315308 -6.24050903 48.01315308 -6.22705078 45.55029297 C-6.22689972 44.62948944 -6.22674866 43.70868591 -6.22659302 42.75997925 C-6.21627045 41.76410797 -6.20594788 40.76823669 -6.1953125 39.7421875 C-6.1924826 38.72399933 -6.18965271 37.70581116 -6.18673706 36.6567688 C-6.1755177 33.396061 -6.15040996 30.13562516 -6.125 26.875 C-6.11497247 24.66797271 -6.10584623 22.46094112 -6.09765625 20.25390625 C-6.07557268 14.83584428 -6.04207795 9.41794157 -6 4 C-6.66 3.67 -7.32 3.34 -8 3 C-2.25 0 -2.25 0 0 0 Z " fill="#4DBEF5" transform="translate(172,223)"/>
<path d="M0 0 C2.51125801 0.38075004 3.74923278 0.74549409 5.55566406 2.57885742 C7.13560519 4.7720165 8.70746065 6.96779325 10.25 9.1875 C10.80429687 9.94353516 11.35859375 10.69957031 11.9296875 11.47851562 C14.2631581 14.79192893 15.86728919 17.21226656 16.546875 21.24609375 C15.91858071 24.4100043 14.89177602 26.27380797 13 28.875 C12.443125 29.65617187 11.88625 30.43734375 11.3125 31.2421875 C10.6628125 32.11230469 10.6628125 32.11230469 10 33 C7.34776751 29.02165126 6.40871785 24.89435656 5.09765625 20.32421875 C3.60758883 15.81159465 1.63202612 11.94803919 -1 8 C-0.96856707 5.26009592 -0.44521663 2.71582146 0 0 Z " fill="#AE5390" transform="translate(757,120)"/>
<path d="M0 0 C4.29649592 5.3706199 5.27126512 10.63294456 4.9375 17.375 C4.27259242 23.18077834 2.2162055 28.13060476 -1 33 C-1.99 33.495 -1.99 33.495 -3 34 C-3 33.01 -3 32.02 -3 31 C-3.66 30.67 -4.32 30.34 -5 30 C-5.78071157 18.89654651 -3.75722676 10.33237359 0 0 Z " fill="#5133E7" transform="translate(797,22)"/>
<path d="M0 0 C1.09936919 2.19873839 1.26512754 3.75069819 1.5 6.1875 C1.76570571 8.89674925 2.08997351 11.55317044 2.52734375 14.2421875 C3.06430893 18.51128255 3.11034402 22.64257882 3.0625 26.9375 C3.05798828 27.71673828 3.05347656 28.49597656 3.04882812 29.29882812 C3.03716908 31.19925268 3.01923877 33.09963706 3 35 C0.59385018 34.63176324 -0.65465229 34.41989896 -2.23046875 32.50390625 C-6.00859422 24.83970887 -6.88937921 17.42426633 -4.74609375 9.1171875 C-3.56985867 5.77938953 -1.90192949 2.97968954 0 0 Z " fill="#30C7F4" transform="translate(752,19)"/>
<path d="M0 0 C4.72302421 1.88920968 7.78035779 3.40426503 10 8 C10.66258995 14.17668594 8.49016964 19.05559302 5 24 C3.35 25.32 1.7 26.64 0 28 C0 18.76 0 9.52 0 0 Z " fill="#6A5FF0" transform="translate(787,13)"/>
<path d="M0 0 C0.97352262 5.59775505 1.61204357 11.32562999 1 17 C-1 19 -1 19 -4.5 19.25 C-8 19 -8 19 -10 17 C-10.14507695 14.25514407 -10.18652423 11.61519457 -10.125 8.875 C-10.11146484 7.74384766 -10.11146484 7.74384766 -10.09765625 6.58984375 C-10.0740687 4.72642746 -10.03819719 2.86317407 -10 1 C-3.375 -1.125 -3.375 -1.125 0 0 Z " fill="#4481EF" transform="translate(783,45)"/>
<path d="M0 0 C1.65 0 3.3 0 5 0 C5 11.55 5 23.1 5 35 C3.35 35 1.7 35 0 35 C0 23.45 0 11.9 0 0 Z " fill="#5AA1F4" transform="translate(772,10)"/>
<path d="M0 0 C3.29700515 2.66900417 5.00206501 5.9475748 6 10 C6.84181474 18.34799621 6.61550577 25.79037785 2 33 C1.34 33.66 0.68 34.32 0 35 C-1.24617514 28.24493952 -1.14760115 21.53941425 -1.125 14.6875 C-1.12886719 13.49576172 -1.13273438 12.30402344 -1.13671875 11.07617188 C-1.13542969 9.94115234 -1.13414062 8.80613281 -1.1328125 7.63671875 C-1.13168457 6.60248779 -1.13055664 5.56825684 -1.12939453 4.50268555 C-1 2 -1 2 0 0 Z " fill="#684CEC" transform="translate(201,232)"/>
<path d="M0 0 C5.47771003 4.71691697 8.53200256 9.84522268 9.3515625 17.12109375 C9.5262845 23.86377438 9.16774351 30.89916064 6 37 C4.515 37.495 4.515 37.495 3 38 C2.98018066 37.0620459 2.96036133 36.1240918 2.93994141 35.15771484 C2.8615614 31.65746299 2.77485919 28.15761836 2.68261719 24.65771484 C2.64447888 23.146727 2.60960028 21.63565304 2.578125 20.12451172 C2.53214295 17.94467522 2.47420675 15.7654238 2.4140625 13.5859375 C2.3826416 12.2767334 2.3512207 10.9675293 2.31884766 9.61865234 C2.00909912 6.10326736 1.26512979 3.28045936 0 0 Z " fill="#3618E0" transform="translate(123,290)"/>
<path d="M0 0 C2.475 0.495 2.475 0.495 5 1 C5.8967732 6.38063921 6.11002848 11.6753671 6.125 17.125 C6.13176758 18.1459375 6.13176758 18.1459375 6.13867188 19.1875 C6.11484434 27.3524025 6.11484434 27.3524025 5 31 C3.35 31.66 1.7 32.32 0 33 C0 22.11 0 11.22 0 0 Z " fill="#637FF2" transform="translate(782,11)"/>
<path d="M0 0 C0.99 0 1.98 0 3 0 C3 17.49 3 34.98 3 53 C2.01 52.67 1.02 52.34 0 52 C0 34.84 0 17.68 0 0 Z " fill="#54B5F6" transform="translate(172,223)"/>
<path d="M0 0 C0 10.56 0 21.12 0 32 C-2.475 31.01 -2.475 31.01 -5 30 C-4.98952637 29.22285645 -4.97905273 28.44571289 -4.96826172 27.64501953 C-4.92679718 24.138379 -4.90070422 20.63178994 -4.875 17.125 C-4.85824219 15.90167969 -4.84148438 14.67835937 -4.82421875 13.41796875 C-4.81777344 12.25136719 -4.81132813 11.08476562 -4.8046875 9.8828125 C-4.79421387 8.80402832 -4.78374023 7.72524414 -4.77294922 6.61376953 C-4.73160023 3.83955978 -4.73160023 3.83955978 -7 2 C-4.35261084 0.5393715 -3.10551666 0 0 0 Z " fill="#4DBEF5" transform="translate(766,11)"/>
<path d="M0 0 C4.29 0 8.58 0 13 0 C13 0.33 13 0.66 13 1 C11.02 1 9.04 1 7 1 C7.16455185 1.55786194 7.3291037 2.11572388 7.49864197 2.69049072 C8.04428175 5.20398418 8.08134791 7.38189014 8.02172852 9.95214844 C8.00163223 10.93286316 7.98153595 11.91357788 7.96083069 12.92401123 C7.92027809 14.5007663 7.92027809 14.5007663 7.87890625 16.109375 C7.85529526 17.19132141 7.83168427 18.27326782 7.80735779 19.38800049 C7.73081291 22.84213683 7.64674869 26.2960438 7.5625 29.75 C7.50927016 32.09243671 7.45652982 34.4348846 7.40429688 36.77734375 C7.27521013 42.51837095 7.13995007 48.25922791 7 54 C8.65 54 10.3 54 12 54 C12 54.33 12 54.66 12 55 C8.37 55 4.74 55 1 55 C1.99 54.01 2.98 53.02 4 52 C4.43386379 49.68261134 4.43386379 49.68261134 4.34057617 47.06958008 C4.34023628 45.56836357 4.34023628 45.56836357 4.33988953 44.03681946 C4.32440567 42.95861435 4.30892181 41.88040924 4.29296875 40.76953125 C4.28872391 39.66397385 4.28447906 38.55841644 4.28010559 37.4193573 C4.26329437 33.88349188 4.22563685 30.34819355 4.1875 26.8125 C4.17245636 24.41732593 4.1587674 22.02214294 4.14648438 19.62695312 C4.11338285 13.75110815 4.06315893 7.87559458 4 2 C2.68 1.34 1.36 0.68 0 0 Z " fill="#4EA3F4" transform="translate(173,222)"/>
<path d="M0 0 C0.5 2 0.5 2 1 4 C1.309375 4.9590625 1.309375 4.9590625 1.625 5.9375 C2 8 2 8 1.5 10.25 C1.00241667 12.98670831 1.21531149 14.39400828 1.75 17.0625 C1.8325 18.361875 1.915 19.66125 2 21 C-0.4375 23.5 -0.4375 23.5 -3 25 C-3.66 24.67 -4.32 24.34 -5 24 C-4.835 23.113125 -4.67 22.22625 -4.5 21.3125 C-3.76653916 16.5401148 -4.11261888 11.79444964 -4.35546875 6.98828125 C-3.92140471 3.33928134 -2.80531442 2.26519494 0 0 Z " fill="#4F50EB" transform="translate(792,36)"/>
<path d="M0 0 C0.33 0 0.66 0 1 0 C1.07421454 3.93260944 1.12863136 7.86494722 1.16479492 11.7980957 C1.18728333 13.79327701 1.22540198 15.78826213 1.26367188 17.78320312 C1.27817383 19.66362305 1.27817383 19.66362305 1.29296875 21.58203125 C1.3086792 22.73936768 1.32438965 23.8967041 1.34057617 25.08911133 C1 28 1 28 -0.51831055 29.90112305 C-1.00726807 30.26375244 -1.49622559 30.62638184 -2 31 C-2 30.01 -2 29.02 -2 28 C-2.66 27.67 -3.32 27.34 -4 27 C-4.52935837 17.1921658 -3.42739837 9.21113311 0 0 Z " fill="#5641E9" transform="translate(796,25)"/>
<path d="M0 0 C4 2 4 2 4.8125 3.8125 C5.03251916 6.37939016 4.5156938 8.48599271 4 11 C4.33 11.99 4.66 12.98 5 14 C4.66666667 15.33333333 4.33333333 16.66666667 4 18 C4.061875 19.175625 4.12375 20.35125 4.1875 21.5625 C4.125625 22.696875 4.06375 23.83125 4 25 C2.68 25.99 1.36 26.98 0 28 C0 18.76 0 9.52 0 0 Z " fill="#686EF0" transform="translate(787,13)"/>
<path d="M0 0 C1.98 0 3.96 0 6 0 C5.98839844 1.27617188 5.97679687 2.55234375 5.96484375 3.8671875 C5.95546583 5.53645687 5.94636563 7.20572783 5.9375 8.875 C5.92912109 9.71675781 5.92074219 10.55851562 5.91210938 11.42578125 C5.90727539 12.63427734 5.90727539 12.63427734 5.90234375 13.8671875 C5.89448853 14.98262939 5.89448853 14.98262939 5.88647461 16.12060547 C5.88213364 18.09132568 5.88213364 18.09132568 7 20 C5.02 19.67 3.04 19.34 1 19 C-0.15316726 12.65758005 -0.09507063 6.43311296 0 0 Z " fill="#3E93F0" transform="translate(769,45)"/>
<path d="M0 0 C1.051875 0.639375 2.10375 1.27875 3.1875 1.9375 C6.10828412 3.61754452 8.6171743 4.58996052 12 5 C12.042721 6.66611905 12.04063832 8.33382885 12 10 C11 11 11 11 9.05053711 11.11352539 C8.2178833 11.10828857 7.38522949 11.10305176 6.52734375 11.09765625 C5.62822266 11.09443359 4.72910156 11.09121094 3.80273438 11.08789062 C2.85720703 11.07951172 1.91167969 11.07113281 0.9375 11.0625 C-0.01189453 11.05798828 -0.96128906 11.05347656 -1.93945312 11.04882812 C-4.29303065 11.0370011 -6.64648477 11.02052025 -9 11 C-9 10.67 -9 10.34 -9 10 C-5.37 10 -1.74 10 2 10 C1.34 6.7 0.68 3.4 0 0 Z " fill="#351DE0" transform="translate(465,342)"/>
<path d="M0 0 C0.99 0.33 1.98 0.66 3 1 C3.97352262 6.59775505 4.61204357 12.32562999 4 18 C3.34 18.66 2.68 19.32 2 20 C0.68 20 -0.64 20 -2 20 C-1.7215625 18.63875 -1.7215625 18.63875 -1.4375 17.25 C-1.0330946 14.24584557 -1.13007416 12.80309437 -2 10 C-2 2 -2 2 0 0 Z " fill="#4771EE" transform="translate(780,44)"/>
<path d="M0 0 C1.32 0.66 2.64 1.32 4 2 C3.59683075 8.31631828 1.28767869 12.64993984 -2 18 C-4.57399511 15.42600489 -4.32659936 14.26430716 -4.375 10.6875 C-4.32271014 6.70301293 -4.170935 5.27242766 -2 1.8125 C-1.34 1.214375 -0.68 0.61625 0 0 Z " fill="#361AE0" transform="translate(1001,309)"/>
<path d="M0 0 C0.66 0 1.32 0 2 0 C4.41830632 7.25491895 5.18974617 13.73446705 2 21 C1.34 21.33 0.68 21.66 0 22 C0 14.74 0 7.48 0 0 Z " fill="#3618E0" transform="translate(1114,172)"/>
<path d="M0 0 C4.29 0.66 8.58 1.32 13 2 C13 3.65 13 5.3 13 7 C9.7 7 6.4 7 3 7 C2.67 5.35 2.34 3.7 2 2 C1.34 2 0.68 2 0 2 C0 1.34 0 0.68 0 0 Z " fill="#351AE0" transform="translate(672,348)"/>
<path d="M0 0 C3.3 0 6.6 0 10 0 C9.875 2.25 9.875 2.25 9 5 C5.4836455 7.87701732 2.52205979 9.46799297 -2 10 C-1.67 9.34 -1.34 8.68 -1 8 C-0.34 8 0.32 8 1 8 C0.67 5.36 0.34 2.72 0 0 Z " fill="#351BE0" transform="translate(286,341)"/>
<path d="M0 0 C1.98 0 3.96 0 6 0 C6.5625 1.9375 6.5625 1.9375 7 4 C6 5 6 5 3.27734375 5.09765625 C1.62412109 5.08025391 1.62412109 5.08025391 -0.0625 5.0625 C-1.16722656 5.05347656 -2.27195312 5.04445312 -3.41015625 5.03515625 C-4.69212891 5.01775391 -4.69212891 5.01775391 -6 5 C-6 4.67 -6 4.34 -6 4 C-4.02 4 -2.04 4 0 4 C0 2.68 0 1.36 0 0 Z " fill="#351CE0" transform="translate(1105,230)"/>
<path d="M0 0 C0.33 0.66 0.66 1.32 1 2 C0.67 2.66 0.34 3.32 0 4 C0.66 4.33 1.32 4.66 2 5 C1.34 5 0.68 5 0 5 C0 5.99 0 6.98 0 8 C-0.99 8.33 -1.98 8.66 -3 9 C-4.5 7.625 -4.5 7.625 -6 6 C-6 5.34 -6 4.68 -6 4 C-4.03852126 2.61061923 -2.03833424 1.2739589 0 0 Z " fill="#E76F90" transform="translate(780,81)"/>
<path d="M0 0 C0.66 0.66 1.32 1.32 2 2 C1.67 2.33 1.34 2.66 1 3 C1.66 3.66 2.32 4.32 3 5 C2.67 5.99 2.34 6.98 2 8 C-0.46800047 6.84826645 -2.04783565 5.95216435 -4 4 C-2.68 2.68 -1.36 1.36 0 0 Z " fill="#E87090" transform="translate(778,483)"/>
<path d="M0 0 C0.66 0.33 1.32 0.66 2 1 C-0.31 3.64 -2.62 6.28 -5 9 C-5 4.61031544 -2.87194899 3.23094261 0 0 Z " fill="#31BDF3" transform="translate(162,227)"/>
<path d="M0 0 C0.99 0 1.98 0 3 0 C2.67 2.97 2.34 5.94 2 9 C0 7 0 7 -0.125 3.375 C-0.08375 2.26125 -0.0425 1.1475 0 0 Z " fill="#6F50EE" transform="translate(794,21)"/>
</svg>
